<?xml version="1.0" encoding="UTF-8" standalone="no"?>
<svg viewBox="0 0 1714 387" version="1.1" xmlns="http://www.w3.org/2000/svg" xmlns:xlink="http://www.w3.org/1999/xlink">
    <path d="M224.427,245.241c13.815,-0 25,11.198 25,25.013c0,13.802 -11.185,25.013 -25,25.013l-135.937,-0c-13.816,-0 -25.013,-11.211 -25.013,-25.013c-0,-13.815 11.197,-25.013 25.013,-25.013l135.937,-0Zm153.711,-71.771c0,-15.156 -12.292,-27.461 -27.461,-27.461c-15.169,-0 -27.461,12.305 -27.461,27.461c0,15.169 12.292,27.474 27.461,27.474c15.169,-0 27.461,-12.305 27.461,-27.474m-46.38,136.159c16.263,-5.795 30.846,-15.144 42.812,-27.097c20.86,-20.859 33.776,-49.687 33.776,-81.523c0,-31.836 -12.916,-60.664 -33.776,-81.524c-20.859,-20.859 -49.687,-33.763 -81.523,-33.763c-31.836,0 -60.664,12.904 -81.511,33.763c-15.273,15.274 -26.276,34.818 -31.08,56.667c17.409,0.065 34.804,0.13 52.226,0.13c47.591,0 81.302,27.292 96.55,60.17c10.534,22.708 12.617,49.948 2.526,73.177m-306.732,-83.334c-13.815,0 -25.026,-11.185 -25.026,-25c0,-13.815 11.211,-25.013 25.026,-25.013c34.948,0 69.596,-0.39 104.596,-0.286c5.417,-35.638 22.201,-67.539 46.537,-91.875c26.927,-26.914 63.099,-44.609 103.333,-47.865c-4.544,-8.906 -3.45,-20.065 3.62,-27.955c9.167,-10.248 24.922,-11.133 35.169,-1.954l56.576,50.599l1.041,0.99c12.474,7.24 23.907,16.055 34.05,26.185c10.794,10.794 20.104,23.086 27.591,36.536l56.888,52.852c5.508,4.492 10.091,11.914 12.031,18.424l-61.028,0c-7.11,0 -12.969,5.847 -12.969,12.956l-0,0.013c-0,7.11 5.859,12.969 12.969,12.969l59.479,-0c-1.966,4.531 -5.495,9.818 -9.258,13.034l-58.646,54.492c-1.067,1.003 -2.213,1.888 -3.398,2.656c-6.732,10.847 -14.688,20.86 -23.659,29.844c-29.922,29.909 -71.25,48.424 -116.901,48.424c-42.695,0 -84.727,-22.786 -123.75,-52.122l55.13,0c24.258,0 43.945,-19.674 43.945,-43.945c0,-24.258 -19.687,-43.959 -43.945,-43.959l-199.401,0Z" />
    <path d="M710.209,218.695l-51.702,-0l-28.042,108.078l-43.524,0l46.153,-177.015c-6.621,3.895 -14.411,5.842 -23.369,5.842c-2.921,0 -5.939,-0.195 -9.055,-0.584l7.303,-28.042c2.531,0.389 4.966,0.584 7.302,0.584c12.658,0 22.298,-6.621 28.919,-19.863l114.505,0l-8.764,30.087l-70.397,-0l-13.144,50.534l52.578,-0l-8.763,30.379Z" />
    <path d="M738.835,326.481c-15.773,-6.816 -23.66,-22.492 -23.66,-47.029c0,-13.631 2.921,-27.263 8.763,-40.894c6.426,-15.19 15.19,-27.604 26.29,-37.244c11.099,-9.639 22.199,-14.459 33.299,-14.459c10.906,0 19.571,4.479 25.998,13.437l3.213,-11.976l39.434,-0l-25.413,98.147c-0.39,1.363 -0.584,2.629 -0.584,3.797c-0,3.895 2.239,5.842 6.718,5.842c2.532,0 5.355,-0.584 8.471,-1.752l-7.303,25.705c-10.126,6.816 -19.473,10.223 -28.042,10.223c-9.736,0 -17.915,-4.381 -24.536,-13.144c-10.127,7.789 -20.156,11.684 -30.087,11.684c-4.479,-0 -8.666,-0.779 -12.561,-2.337Zm48.782,-108.371c-4.674,0 -9.688,2.922 -15.043,8.764c-5.356,5.842 -9.786,13.534 -13.291,23.076c-3.311,8.763 -4.966,17.234 -4.966,25.413c-0,13.047 3.408,19.571 10.224,19.571c4.479,-0 9.444,-3.116 14.897,-9.347c5.453,-6.232 9.931,-14.216 13.437,-23.953c3.505,-8.763 5.258,-17.039 5.258,-24.829c-0,-12.463 -3.506,-18.695 -10.516,-18.695Z" />
    <path d="M967.261,227.75c-11.1,-7.984 -24.147,-11.976 -39.142,-11.976c-3.311,-0 -6.621,1.071 -9.932,3.213c-3.31,2.142 -4.965,4.771 -4.965,7.887c-0,3.115 4.186,6.815 12.56,11.1c11.684,5.842 19.474,10.321 23.368,13.436c8.179,6.816 12.269,14.995 12.269,24.537c-0,16.553 -5.55,29.843 -16.65,39.872c-11.1,10.029 -25.024,15.044 -41.771,15.044c-5.647,-0 -13.632,-1.169 -23.953,-3.506c-11.294,-2.336 -18.597,-4.771 -21.907,-7.302l8.179,-32.424c10.71,6.232 23.563,9.348 38.557,9.348c12.853,-0 19.279,-3.603 19.279,-10.808c0,-5.453 -3.846,-10.321 -11.538,-14.605c-7.692,-4.285 -15.335,-8.471 -22.93,-12.561c-7.984,-6.037 -11.976,-13.631 -11.976,-22.784c-0,-14.995 5.842,-27.555 17.526,-37.682c11.1,-9.542 24.245,-14.313 39.434,-14.313c17.331,0 31.255,3.603 41.771,10.808l-8.179,32.716Z" />
    <path d="M1018.96,326.773l-40.31,0l28.042,-108.078l-18.403,-0l7.887,-30.087l18.403,-0l15.773,-59.881l40.311,-0l-15.482,59.881l25.413,-0l-8.179,30.087l-25.121,-0l-28.334,108.078Z" />
    <path d="M1134.64,326.773c-8.374,13.632 -14.021,22.395 -16.942,26.29c-6.037,7.984 -13.437,14.994 -22.2,21.031c-11.49,7.984 -22.687,11.976 -33.592,11.976c-16.553,-0.779 -24.732,-6.036 -24.537,-15.773l18.987,-26.29c0.194,3.895 3.018,5.745 8.471,5.55c9.152,-0.779 18.986,-8.373 29.502,-22.784l-13.437,-138.457l40.311,-0l7.887,81.205l49.657,-80.913l40.311,-0l-84.418,138.165Z" />
    <path d="M1283.32,227.458l6.426,-26.582c1.753,0.195 2.921,0.292 3.505,0.292l6.426,0c19.085,-1.363 30.574,-11.976 34.469,-31.839c0.389,-1.947 0.584,-3.7 0.584,-5.258c-0,-10.516 -4.187,-18.11 -12.561,-22.784c-6.036,-3.505 -12.365,-4.868 -18.986,-4.089c-2.337,0.584 -3.992,0.779 -4.966,0.584l-49.366,188.991l-46.444,0l46.152,-177.015c-6.621,3.895 -14.41,5.842 -23.368,5.842c-2.921,0 -5.94,-0.195 -9.055,-0.584l7.302,-28.042c2.532,0.389 4.966,0.584 7.303,0.584c12.658,0 22.297,-6.621 28.918,-19.863l37.682,-0.292c32.715,-0.389 55.402,8.276 68.06,25.997c6.426,8.179 9.639,17.624 9.639,28.334c0,10.127 -2.726,19.912 -8.179,29.357c-5.452,9.445 -12.657,16.893 -21.615,22.346c12.658,10.516 18.986,24.829 18.986,42.939c0,10.905 -2.628,21.908 -7.886,33.008c-6.232,12.852 -14.557,22.784 -24.975,29.795c-10.419,7.01 -21.275,10.515 -32.57,10.515c-7.984,0 -15.579,-1.752 -22.784,-5.258c-2.142,-0.973 -7.497,-3.7 -16.066,-8.179l7.887,-32.131c1.558,1.753 3.311,3.311 5.258,4.674c4.479,3.31 9.25,5.16 14.313,5.55c1.558,0.584 3.505,0.876 5.842,0.876c6.232,-0 12.366,-2.239 18.403,-6.718c7.01,-5.453 11.392,-12.561 13.144,-21.324c0.585,-3.311 0.877,-6.329 0.877,-9.055c-0,-12.658 -6.134,-21.421 -18.403,-26.29c-6.816,-2.726 -14.8,-3.992 -23.952,-3.797l0.292,-0.584l-0.292,-0Z" />
    <path d="M1453.03,188.316l-36.221,138.749l-40.31,0l36.221,-138.749l40.31,-0Zm-9.347,-22.492c-6.621,0.195 -12.269,-1.315 -16.942,-4.528c-4.674,-3.213 -7.011,-7.254 -7.011,-12.122c0,-4.869 2.337,-9.104 7.011,-12.707c4.673,-3.602 10.321,-5.501 16.942,-5.696c6.621,-0.194 12.268,1.315 16.942,4.528c4.674,3.213 7.01,7.254 7.01,12.122c0,4.869 -2.336,9.104 -7.01,12.707c-4.674,3.602 -10.321,5.501 -16.942,5.696Z" />
    <path d="M1556.73,190.653l-9.055,37.973c-5.063,-2.921 -9.834,-4.381 -14.313,-4.381c-10.321,-0 -18.403,7.108 -24.245,21.323l-21.908,81.205l-40.31,0l37.097,-137.873l40.311,0l-2.337,8.763c9.542,-6.037 18.208,-9.055 25.997,-9.055c3.505,-0 6.426,0.682 8.763,2.045Z" />
    <path d="M1580.39,325.897c-15.385,-6.621 -23.077,-22.103 -23.077,-46.445c0,-13.436 2.824,-26.873 8.471,-40.31c6.621,-15.384 15.433,-27.799 26.436,-37.243c11.002,-9.445 21.956,-14.167 32.862,-14.167c11.099,-0 19.863,4.868 26.289,14.605l21.908,-82.958l40.31,0l-54.331,207.394l-40.603,0l2.629,-9.055c-9.737,7.01 -19.279,10.516 -28.626,10.516c-4.284,-0 -8.374,-0.779 -12.268,-2.337Zm46.444,-107.202c-10.516,-0 -19.473,9.834 -26.873,29.502c-3.311,8.958 -4.966,17.526 -4.966,25.705c-0,13.632 3.7,20.448 11.1,20.448c4.868,-0 10.029,-3.019 15.481,-9.056c5.453,-6.036 9.932,-13.826 13.437,-23.368c3.116,-7.984 4.674,-15.481 4.674,-22.492c-0,-13.826 -4.284,-20.739 -12.853,-20.739Z" />
</svg>
