<?xml version="1.0" encoding="utf-8"?>
<svg viewBox="0 0.0001 13.7215 9.9248" xmlns="http://www.w3.org/2000/svg">
    <path d="M0.677699 6.13129c-0.374299,0 -0.677699,-0.303399 -0.677699,-0.677599 0,-0.374199 0.303399,-0.677699 0.677699,-0.677699 0.947098,0 1.8859,-0.0106 2.83409,-0.00759998 0.1466,-0.965398 0.601499,-1.8298 1.261,-2.48919 0.729298,-0.729398 1.7093,-1.2085 2.79949,-1.297 -0.1232,-0.241299 -0.0932998,-0.543399 0.0979998,-0.757298 0.248499,-0.277699 0.675299,-0.301399 0.952998,-0.0528999l1.5326 1.3707 0.0282999 0.0269999c0.337999,0.1961 0.647799,0.435099 0.922298,0.709498 0.292599,0.292499 0.544999,0.625499 0.747898,0.989698l1.5411 1.432c0.1491,0.1217 0.273399,0.322999 0.325999,0.499299l-1.6534 0c-0.1927,0 -0.351299,0.1585 -0.351299,0.351199l0 0.000299999c0,0.1926 0.1587,0.351299 0.351299,0.351299 0.537099,0 1.0741,0 1.6112,0 -0.0531999,0.1225 -0.1485,0.265899 -0.250599,0.352999l-1.5888 1.4764c-0.0291999,0.0270999 -0.0598999,0.0508999 -0.0921998,0.0719998 -0.1824,0.293899 -0.397799,0.565099 -0.641199,0.808498 -0.810298,0.810498 -1.9301,1.312 -3.16689,1.312 -1.157,0 -2.2955,-0.617199 -3.35279,-1.412l1.4935 0c0.657399,0 1.1908,-0.533299 1.1908,-1.1908 0,-0.657399 -0.533399,-1.1908 -1.1908,-1.1908 -1.8009,0 -3.60179,0 -5.40259,0zm8.31068 2.2577c0.440599,-0.157 0.835798,-0.410199 1.1599,-0.734298 0.565199,-0.564999 0.914798,-1.3461 0.914798,-2.2086 0,-0.862498 -0.349599,-1.6436 -0.914798,-2.2087 -0.565099,-0.565099 -1.3461,-0.914798 -2.2087,-0.914798 -0.862498,0 -1.6436,0.349699 -2.2086,0.914798 -0.413599,0.413699 -0.711798,0.943098 -0.841898,1.5354 0.471799,0.0014 0.943098,0.00319999 1.4149,0.00319999 1.2892,0 2.2028,0.739598 2.61599,1.6303 0.285199,0.615399 0.341499,1.3531 0.0683999,1.9827zm1.2565 -3.68889c0,-0.410899 -0.333099,-0.744098 -0.744098,-0.744098 -0.410899,0 -0.743998,0.333199 -0.743998,0.744098 0,0.410899 0.333099,0.744098 0.743998,0.744098 0.410999,0 0.744098,-0.333199 0.744098,-0.744098zm-4.16459 1.9444c0.374199,0 0.677599,0.303399 0.677599,0.677599 0,0.374199 -0.303399,0.677699 -0.677599,0.677699l-3.68299 0c-0.374199,0 -0.677699,-0.303499 -0.677699,-0.677699 0,-0.374199 0.303499,-0.677599 0.677699,-0.677599l3.68299 0z" transform="matrix(0.9999999999999999, 0, 0, 0.9999999999999999, -4.440892098500626e-16, -4.440892098500626e-16)"/>
</svg>
