<?xml version="1.0" encoding="utf-8"?>
<svg viewBox="0 0 435 90" xmlns="http://www.w3.org/2000/svg">
    <g transform="matrix(4.16667,0,0,4.16667,-738.111,-346.925)">
        <g transform="matrix(22.4336,0,0,22.4336,177.685,100.356)">
            <path d="M0.364,-0.762C0.395,-0.762 0.431,-0.756 0.472,-0.745C0.51,-0.734 0.536,-0.724 0.551,-0.713L0.514,-0.574C0.464,-0.609 0.403,-0.626 0.331,-0.627C0.314,-0.628 0.296,-0.622 0.277,-0.61C0.254,-0.596 0.241,-0.577 0.236,-0.554C0.229,-0.521 0.251,-0.491 0.301,-0.463C0.358,-0.43 0.398,-0.401 0.42,-0.374C0.453,-0.335 0.467,-0.287 0.463,-0.23C0.459,-0.163 0.427,-0.105 0.367,-0.054C0.319,-0.013 0.258,0.007 0.183,0.007C0.142,0.007 0.101,0 0.058,-0.014C0.039,-0.019 0.011,-0.028 -0.024,-0.041L0.013,-0.181C0.069,-0.15 0.127,-0.135 0.188,-0.135C0.221,-0.135 0.248,-0.142 0.271,-0.155C0.298,-0.172 0.312,-0.195 0.312,-0.225C0.312,-0.268 0.291,-0.301 0.248,-0.325L0.17,-0.37C0.152,-0.381 0.14,-0.389 0.134,-0.395C0.103,-0.428 0.088,-0.463 0.088,-0.498C0.088,-0.511 0.09,-0.525 0.093,-0.54C0.116,-0.542 0.138,-0.552 0.161,-0.57C0.182,-0.586 0.199,-0.605 0.211,-0.626C0.185,-0.595 0.14,-0.58 0.077,-0.58C0.064,-0.58 0.05,-0.581 0.036,-0.582L0.061,-0.678C0.073,-0.677 0.084,-0.676 0.095,-0.676C0.134,-0.676 0.164,-0.684 0.187,-0.701C0.241,-0.742 0.3,-0.762 0.364,-0.762Z" />
        </g>
        <g transform="matrix(22.4336,0,0,22.4336,188.947,100.356)">
            <path d="M0.665,0.072C0.683,0.073 0.697,0.067 0.708,0.054L0.738,0.143C0.707,0.176 0.662,0.194 0.603,0.197C0.564,0.197 0.533,0.183 0.508,0.156C0.487,0.133 0.476,0.109 0.475,0.084C0.475,0.089 0.478,0.061 0.484,-0L0.567,-0.32C0.568,-0.323 0.569,-0.327 0.569,-0.33C0.569,-0.341 0.564,-0.35 0.553,-0.356C0.548,-0.36 0.543,-0.362 0.537,-0.362C0.525,-0.362 0.512,-0.356 0.498,-0.345C0.477,-0.328 0.467,-0.32 0.466,-0.319C0.456,-0.31 0.448,-0.299 0.442,-0.286L0.367,-0L0.228,-0L0.312,-0.315C0.313,-0.318 0.313,-0.322 0.313,-0.325C0.313,-0.336 0.308,-0.345 0.297,-0.351C0.293,-0.355 0.288,-0.357 0.281,-0.357C0.27,-0.357 0.257,-0.351 0.242,-0.34C0.218,-0.321 0.204,-0.308 0.199,-0.302C0.187,-0.287 0.178,-0.264 0.173,-0.234L0.172,-0.234L0.11,-0L-0.028,-0L0.096,-0.472L0.234,-0.472L0.224,-0.435C0.263,-0.459 0.301,-0.471 0.338,-0.471C0.351,-0.471 0.362,-0.469 0.371,-0.466C0.402,-0.453 0.424,-0.433 0.437,-0.408C0.49,-0.453 0.542,-0.476 0.594,-0.476C0.607,-0.476 0.618,-0.474 0.627,-0.471C0.682,-0.447 0.709,-0.406 0.709,-0.349C0.709,-0.338 0.708,-0.329 0.706,-0.32L0.622,-0C0.621,0.029 0.626,0.048 0.635,0.059C0.641,0.066 0.651,0.071 0.665,0.072Z" />
        </g>
        <g transform="matrix(22.4336,0,0,22.4336,205.48,100.356)">
            <path d="M0.08,-0.001C0.026,-0.024 -0.001,-0.078 -0.001,-0.162C-0.001,-0.209 0.009,-0.255 0.029,-0.302C0.051,-0.354 0.081,-0.397 0.119,-0.43C0.157,-0.463 0.195,-0.479 0.233,-0.479C0.27,-0.479 0.3,-0.464 0.322,-0.433L0.333,-0.474L0.468,-0.474L0.381,-0.138C0.38,-0.133 0.379,-0.129 0.379,-0.125C0.379,-0.112 0.387,-0.105 0.402,-0.105C0.411,-0.105 0.42,-0.107 0.431,-0.111L0.406,-0.023C0.371,0 0.339,0.012 0.31,0.012C0.277,0.012 0.249,-0.003 0.226,-0.033C0.191,-0.006 0.157,0.007 0.123,0.007C0.108,0.007 0.093,0.004 0.08,-0.001ZM0.247,-0.372C0.231,-0.372 0.214,-0.362 0.196,-0.342C0.177,-0.322 0.162,-0.296 0.15,-0.263C0.139,-0.233 0.133,-0.204 0.133,-0.176C0.133,-0.131 0.145,-0.109 0.168,-0.109C0.183,-0.109 0.2,-0.12 0.219,-0.141C0.238,-0.162 0.253,-0.19 0.265,-0.223C0.277,-0.253 0.283,-0.281 0.283,-0.308C0.283,-0.351 0.271,-0.372 0.247,-0.372Z" />
        </g>
        <g transform="matrix(22.4336,0,0,22.4336,216.72,100.356)">
            <path d="M0.343,-0.466L0.312,-0.336C0.295,-0.346 0.278,-0.351 0.263,-0.351C0.228,-0.351 0.2,-0.327 0.18,-0.278L0.105,-0L-0.033,-0L0.094,-0.472L0.232,-0.472L0.224,-0.442C0.257,-0.463 0.286,-0.473 0.313,-0.473C0.325,-0.473 0.335,-0.471 0.343,-0.466Z"/>
        </g>
        <g transform="matrix(22.4336,0,0,22.4336,224.571,100.356)">
            <path d="M0.148,-0L0.01,-0L0.106,-0.37L0.043,-0.37L0.07,-0.473L0.133,-0.473L0.187,-0.678L0.325,-0.678L0.272,-0.473L0.359,-0.473L0.331,-0.37L0.245,-0.37L0.148,-0Z" />
        </g>
        <g transform="matrix(22.4336,0,0,22.4336,231.817,100.356)">
            <path d="M0.133,-0.606C0.11,-0.593 0.083,-0.586 0.052,-0.586C0.042,-0.586 0.032,-0.587 0.022,-0.588L0.047,-0.684C0.055,-0.683 0.063,-0.682 0.072,-0.682C0.115,-0.682 0.147,-0.705 0.17,-0.75L0.329,-0.75C0.408,-0.75 0.476,-0.721 0.532,-0.662C0.554,-0.631 0.565,-0.595 0.565,-0.556C0.565,-0.504 0.544,-0.453 0.501,-0.404C0.462,-0.371 0.422,-0.35 0.379,-0.339C0.34,-0.327 0.297,-0.324 0.25,-0.329L0.272,-0.42C0.356,-0.413 0.407,-0.452 0.426,-0.539C0.427,-0.546 0.427,-0.552 0.427,-0.559C0.427,-0.593 0.413,-0.618 0.384,-0.633C0.365,-0.643 0.344,-0.648 0.32,-0.647C0.312,-0.646 0.306,-0.646 0.302,-0.647L0.133,-0L-0.026,-0L0.133,-0.606Z" />
        </g>
        <g transform="matrix(22.4336,0,0,22.4336,243.146,100.356)">
            <path d="M0.08,-0.001C0.026,-0.024 -0.001,-0.078 -0.001,-0.162C-0.001,-0.209 0.009,-0.255 0.029,-0.302C0.051,-0.354 0.081,-0.397 0.119,-0.43C0.157,-0.463 0.195,-0.479 0.233,-0.479C0.27,-0.479 0.3,-0.464 0.322,-0.433L0.333,-0.474L0.468,-0.474L0.381,-0.138C0.38,-0.133 0.379,-0.129 0.379,-0.125C0.379,-0.112 0.387,-0.105 0.402,-0.105C0.411,-0.105 0.42,-0.107 0.431,-0.111L0.406,-0.023C0.371,0 0.339,0.012 0.31,0.012C0.277,0.012 0.249,-0.003 0.226,-0.033C0.191,-0.006 0.157,0.007 0.123,0.007C0.108,0.007 0.093,0.004 0.08,-0.001ZM0.247,-0.372C0.231,-0.372 0.214,-0.362 0.196,-0.342C0.177,-0.322 0.162,-0.296 0.15,-0.263C0.139,-0.233 0.133,-0.204 0.133,-0.176C0.133,-0.131 0.145,-0.109 0.168,-0.109C0.183,-0.109 0.2,-0.12 0.219,-0.141C0.238,-0.162 0.253,-0.19 0.265,-0.223C0.277,-0.253 0.283,-0.281 0.283,-0.308C0.283,-0.351 0.271,-0.372 0.247,-0.372Z" />
        </g>
        <g transform="matrix(22.4336,0,0,22.4336,254.386,100.356)">
            <path d="M0.413,0.075C0.428,0.076 0.443,0.069 0.456,0.056L0.486,0.146C0.455,0.179 0.41,0.197 0.351,0.2C0.312,0.2 0.281,0.186 0.256,0.159C0.235,0.136 0.224,0.112 0.223,0.087C0.223,0.09 0.226,0.061 0.232,-0L0.315,-0.317C0.316,-0.32 0.317,-0.324 0.317,-0.327C0.317,-0.338 0.312,-0.347 0.301,-0.353C0.296,-0.357 0.291,-0.359 0.285,-0.359C0.273,-0.359 0.26,-0.353 0.246,-0.342C0.236,-0.334 0.226,-0.326 0.216,-0.317C0.206,-0.308 0.198,-0.299 0.193,-0.288L0.117,-0L-0.021,-0L0.103,-0.472L0.241,-0.472L0.233,-0.44C0.27,-0.462 0.307,-0.473 0.342,-0.473C0.355,-0.473 0.366,-0.472 0.375,-0.469C0.43,-0.444 0.457,-0.403 0.457,-0.346C0.457,-0.335 0.456,-0.326 0.454,-0.317L0.37,-0C0.369,0.047 0.384,0.072 0.413,0.075Z" />
        </g>
        <g transform="matrix(22.4336,0,0,22.4336,265.311,100.356)">
            <path d="M0.132,-0.158C0.137,-0.129 0.146,-0.112 0.161,-0.105C0.165,-0.102 0.17,-0.1 0.176,-0.097C0.224,-0.096 0.266,-0.114 0.301,-0.15L0.266,-0.016C0.238,0.002 0.208,0.011 0.176,0.011C0.148,0.011 0.12,0.004 0.092,-0.01C0.031,-0.04 0,-0.097 0,-0.182C0,-0.227 0.011,-0.272 0.032,-0.316C0.055,-0.364 0.088,-0.403 0.129,-0.432C0.17,-0.46 0.212,-0.475 0.254,-0.475C0.277,-0.475 0.299,-0.47 0.319,-0.461C0.372,-0.443 0.398,-0.403 0.398,-0.341C0.398,-0.33 0.397,-0.319 0.395,-0.31C0.386,-0.268 0.36,-0.231 0.319,-0.199C0.278,-0.167 0.233,-0.151 0.184,-0.151C0.166,-0.151 0.149,-0.153 0.132,-0.158ZM0.14,-0.245C0.153,-0.242 0.165,-0.241 0.178,-0.241C0.211,-0.241 0.239,-0.249 0.26,-0.265C0.282,-0.284 0.293,-0.304 0.293,-0.323C0.293,-0.334 0.289,-0.344 0.281,-0.354C0.273,-0.364 0.264,-0.369 0.253,-0.369C0.23,-0.369 0.206,-0.354 0.182,-0.323C0.162,-0.298 0.148,-0.272 0.14,-0.245Z" />
        </g>
        <g transform="matrix(22.4336,0,0,22.4336,274.621,100.356)">
            <path d="M0.115,0.001L-0.023,0.001L0.163,-0.71L0.302,-0.71L0.115,0.001Z" />
        </g>
    </g>
</svg>
