<?xml version="1.0" encoding="UTF-8" standalone="no"?>
<svg viewBox="0 0 1947 386" version="1.1" xmlns="http://www.w3.org/2000/svg" xmlns:xlink="http://www.w3.org/1999/xlink">
    <path d="M224.427,245.241c13.815,-0 25,11.198 25,25.013c0,13.802 -11.185,25.013 -25,25.013l-135.937,-0c-13.816,-0 -25.013,-11.211 -25.013,-25.013c-0,-13.815 11.197,-25.013 25.013,-25.013l135.937,-0Zm153.711,-71.771c0,-15.156 -12.292,-27.461 -27.461,-27.461c-15.169,-0 -27.461,12.305 -27.461,27.461c0,15.169 12.292,27.474 27.461,27.474c15.169,-0 27.461,-12.305 27.461,-27.474m-46.38,136.159c16.263,-5.795 30.846,-15.144 42.812,-27.097c20.86,-20.859 33.776,-49.687 33.776,-81.523c0,-31.836 -12.916,-60.664 -33.776,-81.524c-20.859,-20.859 -49.687,-33.763 -81.523,-33.763c-31.836,0 -60.664,12.904 -81.511,33.763c-15.273,15.274 -26.276,34.818 -31.08,56.667c17.409,0.065 34.804,0.13 52.226,0.13c47.591,0 81.302,27.292 96.55,60.17c10.534,22.708 12.617,49.948 2.526,73.177m-306.732,-83.334c-13.815,0 -25.026,-11.185 -25.026,-25c0,-13.815 11.211,-25.013 25.026,-25.013c34.948,0 69.596,-0.39 104.596,-0.286c5.417,-35.638 22.201,-67.539 46.537,-91.875c26.927,-26.914 63.099,-44.609 103.333,-47.865c-4.544,-8.906 -3.45,-20.065 3.62,-27.955c9.167,-10.248 24.922,-11.133 35.169,-1.954l56.576,50.599l1.041,0.99c12.474,7.24 23.907,16.055 34.05,26.185c10.794,10.794 20.104,23.086 27.591,36.536l56.888,52.852c5.508,4.492 10.091,11.914 12.031,18.424l-61.028,0c-7.11,0 -12.969,5.847 -12.969,12.956l-0,0.013c-0,7.11 5.859,12.969 12.969,12.969l59.479,-0c-1.966,4.531 -5.495,9.818 -9.258,13.034l-58.646,54.492c-1.067,1.003 -2.213,1.888 -3.398,2.656c-6.732,10.847 -14.688,20.86 -23.659,29.844c-29.922,29.909 -71.25,48.424 -116.901,48.424c-42.695,0 -84.727,-22.786 -123.75,-52.122l55.13,0c24.258,0 43.945,-19.674 43.945,-43.945c0,-24.258 -19.687,-43.959 -43.945,-43.959l-199.401,0Z" />
    <path d="M702.03,104.19c8.958,-0 19.474,1.655 31.548,4.966c11.1,3.115 18.792,6.231 23.076,9.347l-10.808,40.602c-14.605,-10.126 -32.424,-15.286 -53.455,-15.481c-5.063,-0.195 -10.321,1.46 -15.774,4.966c-6.621,4.089 -10.613,9.542 -11.976,16.358c-1.947,9.542 4.382,18.402 18.987,26.581c16.747,9.542 28.334,18.208 34.76,25.997c9.542,11.295 13.729,25.316 12.561,42.063c-1.169,19.474 -10.516,36.611 -28.042,51.411c-14.021,11.879 -31.937,17.818 -53.748,17.818c-11.878,-0 -24.049,-2.045 -36.513,-6.134c-5.647,-1.558 -13.631,-4.187 -23.952,-7.887l10.808,-40.895c16.358,8.958 33.397,13.437 51.118,13.437c9.542,0 17.624,-1.947 24.245,-5.842c7.984,-4.868 11.976,-11.684 11.976,-20.447c-0,-12.463 -6.232,-22.2 -18.695,-29.211l-22.784,-13.144c-5.258,-3.116 -8.763,-5.55 -10.516,-7.303c-8.957,-9.737 -13.436,-19.766 -13.436,-30.087c-0,-3.7 0.486,-7.789 1.46,-12.268c6.621,-0.584 13.242,-3.505 19.863,-8.763c6.232,-4.674 11.1,-10.126 14.605,-16.358c-7.594,8.958 -20.642,13.437 -39.142,13.437c-3.894,-0 -7.886,-0.195 -11.976,-0.584l7.303,-28.042c3.505,0.389 6.816,0.584 9.931,0.584c11.295,-0 20.253,-2.434 26.874,-7.303c15.774,-11.879 33.008,-17.818 51.702,-17.818Z" />
    <path d="M936.59,347.805c5.258,0.194 9.445,-1.558 12.56,-5.258l8.764,25.997c-9.153,9.737 -22.298,14.995 -39.434,15.774c-11.295,-0 -20.545,-3.992 -27.75,-11.977c-6.232,-6.621 -9.445,-13.631 -9.64,-21.031c0,1.558 0.877,-6.621 2.629,-24.537l24.245,-93.473c0.389,-0.974 0.584,-1.947 0.584,-2.921c-0,-3.311 -1.558,-5.842 -4.674,-7.595c-1.363,-1.168 -2.921,-1.752 -4.673,-1.752c-3.506,-0 -7.303,1.655 -11.392,4.965c-6.037,4.869 -9.153,7.4 -9.348,7.595c-2.921,2.726 -5.258,5.939 -7.01,9.639l-21.908,83.542l-40.603,0l24.537,-92.013c0.195,-0.973 0.292,-1.947 0.292,-2.921c0,-3.31 -1.558,-5.842 -4.673,-7.594c-1.169,-1.169 -2.727,-1.753 -4.674,-1.753c-3.311,0 -7.108,1.655 -11.392,4.966c-7.011,5.647 -11.197,9.347 -12.561,11.1c-3.505,4.479 -6.036,11.1 -7.594,19.863l-0.292,-0l-18.111,68.352l-40.31,0l36.221,-137.873l40.31,0l-2.921,10.808c11.489,-7.011 22.589,-10.516 33.3,-10.516c3.895,0 7.108,0.487 9.639,1.461c8.958,3.894 15.385,9.542 19.279,16.942c15.384,-13.242 30.671,-19.863 45.861,-19.863c3.7,-0 6.913,0.486 9.639,1.46c15.968,7.011 23.953,18.89 23.953,35.637c-0,3.116 -0.293,5.939 -0.877,8.471l-24.536,93.473c-0.195,8.374 1.071,14.119 3.797,17.234c1.752,2.142 4.674,3.408 8.763,3.798Z" />
    <path d="M980.99,326.481c-15.774,-6.816 -23.661,-22.492 -23.661,-47.029c0,-13.631 2.921,-27.263 8.764,-40.894c6.426,-15.19 15.189,-27.604 26.289,-37.244c11.1,-9.639 22.2,-14.459 33.3,-14.459c10.905,0 19.571,4.479 25.997,13.437l3.213,-11.976l39.434,-0l-25.413,98.147c-0.389,1.363 -0.584,2.629 -0.584,3.797c-0,3.895 2.239,5.842 6.718,5.842c2.532,0 5.356,-0.584 8.471,-1.752l-7.302,25.705c-10.126,6.816 -19.474,10.223 -28.042,10.223c-9.737,0 -17.916,-4.381 -24.537,-13.144c-10.126,7.789 -20.155,11.684 -30.087,11.684c-4.479,-0 -8.665,-0.779 -12.56,-2.337Zm48.781,-108.371c-4.673,0 -9.688,2.922 -15.043,8.764c-5.355,5.842 -9.786,13.534 -13.291,23.076c-3.31,8.763 -4.966,17.234 -4.966,25.413c0,13.047 3.408,19.571 10.224,19.571c4.479,-0 9.445,-3.116 14.897,-9.347c5.453,-6.232 9.932,-14.216 13.437,-23.953c3.505,-8.763 5.258,-17.039 5.258,-24.829c-0,-12.463 -3.505,-18.695 -10.516,-18.695Z" />
    <path d="M1204.16,190.653l-9.055,37.973c-5.063,-2.921 -9.834,-4.381 -14.313,-4.381c-10.321,-0 -18.402,7.108 -24.245,21.323l-21.907,81.205l-40.311,0l37.097,-137.873l40.311,0l-2.337,8.763c9.542,-6.037 18.208,-9.055 25.997,-9.055c3.506,-0 6.427,0.682 8.763,2.045Z" />
    <path d="M1249.43,326.773l-40.311,0l28.042,-108.078l-18.402,-0l7.886,-30.087l18.403,-0l15.774,-59.881l40.31,-0l-15.482,59.881l25.414,-0l-8.179,30.087l-25.121,-0l-28.334,108.078Z" />
    <path d="M1339.4,149.758c-6.816,3.895 -14.703,5.842 -23.661,5.842c-2.921,0 -5.842,-0.195 -8.763,-0.584l7.303,-28.042c2.337,0.389 4.771,0.584 7.302,0.584c12.463,0 22.005,-6.621 28.626,-19.863l46.445,0c23.174,0 42.939,8.568 59.297,25.705c6.426,9.153 9.64,19.474 9.64,30.963c-0,15.19 -6.232,29.99 -18.695,44.4c-11.295,9.542 -23.174,15.871 -35.637,18.987c-11.294,3.505 -23.855,4.479 -37.681,2.921l6.426,-26.582c24.537,2.143 39.532,-9.444 44.984,-34.76c0.195,-1.947 0.292,-3.895 0.292,-5.842c0,-9.932 -4.187,-17.137 -12.56,-21.616c-5.453,-2.921 -11.684,-4.284 -18.695,-4.089c-2.337,0.195 -4.089,0.195 -5.258,-0l-49.365,188.991l-46.445,0l46.445,-177.015Z" />
    <path d="M1471.43,326.481c-15.774,-6.816 -23.661,-22.492 -23.661,-47.029c0,-13.631 2.921,-27.263 8.763,-40.894c6.427,-15.19 15.19,-27.604 26.29,-37.244c11.1,-9.639 22.2,-14.459 33.3,-14.459c10.905,0 19.571,4.479 25.997,13.437l3.213,-11.976l39.434,-0l-25.413,98.147c-0.389,1.363 -0.584,2.629 -0.584,3.797c-0,3.895 2.239,5.842 6.718,5.842c2.532,0 5.356,-0.584 8.471,-1.752l-7.302,25.705c-10.127,6.816 -19.474,10.223 -28.042,10.223c-9.737,0 -17.916,-4.381 -24.537,-13.144c-10.126,7.789 -20.155,11.684 -30.087,11.684c-4.479,-0 -8.666,-0.779 -12.56,-2.337Zm48.781,-108.371c-4.674,0 -9.688,2.922 -15.043,8.764c-5.355,5.842 -9.786,13.534 -13.291,23.076c-3.311,8.763 -4.966,17.234 -4.966,25.413c0,13.047 3.408,19.571 10.224,19.571c4.479,-0 9.445,-3.116 14.897,-9.347c5.453,-6.232 9.932,-14.216 13.437,-23.953c3.505,-8.763 5.258,-17.039 5.258,-24.829c-0,-12.463 -3.505,-18.695 -10.516,-18.695Z" />
    <path d="M1715.05,348.681c4.479,0.195 8.665,-1.655 12.56,-5.55l8.763,26.289c-9.152,9.737 -22.297,14.995 -39.434,15.774c-11.295,0 -20.545,-3.992 -27.75,-11.976c-6.231,-6.621 -9.444,-13.632 -9.639,-21.032c-0,0.974 0.876,-7.497 2.629,-25.413l24.244,-92.597c0.39,-0.973 0.585,-1.947 0.585,-2.921c-0,-3.31 -1.558,-5.842 -4.674,-7.595c-1.363,-1.168 -2.921,-1.752 -4.674,-1.752c-3.505,-0 -7.302,1.655 -11.392,4.966c-2.921,2.336 -5.842,4.771 -8.763,7.302c-2.921,2.532 -5.16,5.355 -6.718,8.471l-22.2,84.126l-40.311,0l36.221,-137.873l40.311,0l-2.337,9.347c10.905,-6.426 21.518,-9.639 31.839,-9.639c3.7,-0 6.913,0.389 9.64,1.168c15.968,7.206 23.952,19.182 23.952,35.929c0,3.116 -0.292,5.94 -0.876,8.471l-24.537,92.597c-0.195,13.826 3.992,21.129 12.561,21.908Z" />
    <path d="M1775.22,280.621c1.363,8.373 4.187,13.534 8.471,15.481c1.168,0.779 2.629,1.558 4.382,2.337c14.021,0.195 26.192,-4.966 36.513,-15.481l-10.224,39.142c-8.179,5.257 -16.942,7.886 -26.289,7.886c-8.179,0 -16.358,-2.044 -24.537,-6.134c-17.916,-8.763 -26.874,-25.51 -26.874,-50.242c0,-13.242 3.116,-26.289 9.348,-39.142c6.815,-14.021 16.26,-25.267 28.334,-33.738c12.073,-8.471 24.244,-12.706 36.513,-12.706c6.816,-0 13.144,1.363 18.987,4.089c15.384,5.258 23.076,16.942 23.076,35.053c-0,3.31 -0.292,6.329 -0.877,9.055c-2.726,12.268 -10.126,23.076 -22.199,32.423c-12.074,9.348 -25.219,14.021 -39.435,14.021c-5.257,0 -10.321,-0.681 -15.189,-2.044Zm2.337,-25.413c3.7,0.779 7.4,1.168 11.1,1.168c9.737,0 17.721,-2.337 23.952,-7.01c6.427,-5.648 9.64,-11.295 9.64,-16.942c-0,-3.116 -1.169,-6.135 -3.505,-9.056c-2.337,-2.921 -5.064,-4.381 -8.179,-4.381c-6.816,-0 -13.729,4.479 -20.74,13.437c-5.842,7.4 -9.931,14.994 -12.268,22.784Z" />
    <path d="M1891.48,327.065l-40.311,0l54.332,-207.686l40.602,0l-54.623,207.686Z" />
</svg>
